# xmcd
#
# Track frame offsets: 
#        150
#        24523
#        47099
#        78160
#        105401
#        127589
#        145303
#        169075
#        200903
#        219053
#        251100
#        284856
#
# Disc length: 4195 seconds
#
# Revision: 2
# Processed by: cddbd v1.5.2PL0 Copyright (c) Steve Scherf et al.
# Submitted via: ExactAudioCopy v0.99pb4
#
DISCID=a810610c
DTITLE=José James - The Dreamer (Japan Edition)
DYEAR=2008
DGENRE=Jazz
TTITLE0=Love
TTITLE1=Spirits Up Above 
TTITLE2=Moanin' (bonus track)
TTITLE3=Park Bench People 
TTITLE4=Blackeyedsusan 
TTITLE5=Nola 
TTITLE6=Red 
TTITLE7=The Dreamer 
TTITLE8=Velvet 
TTITLE9=Winterwind 
TTITLE10=Desire 
TTITLE11=Body and soul (bonus track)
EXTD=YEAR: 2008
EXTT0=
EXTT1=
EXTT2=
EXTT3=
EXTT4=
EXTT5=
EXTT6=
EXTT7=
EXTT8=
EXTT9=
EXTT10=
EXTT11=
PLAYORDER=
